<?xml version="1.0" encoding="UTF-8"?><svg id="_レイヤー_2" xmlns="http://www.w3.org/2000/svg" viewBox="0 0 301.9 286.9"><defs><style>.cls-1,.cls-2{fill:#f2f2f2;}.cls-3{fill:#e6e6e6;}.cls-4{fill:#f4f4f4;}.cls-5,.cls-6{fill:#333;}.cls-7{stroke-linecap:round;}.cls-7,.cls-6,.cls-8{stroke-miterlimit:10;}.cls-7,.cls-8{fill:none;stroke:#e6e6e6;}.cls-2{font-family:'AB-suruga_u-83pv-RKSJ-H', AB-suruga_u;font-size:23px;}.cls-6{stroke:#000;}</style></defs><g id="_レイヤー_1-2"><g><path class="cls-6" d="m290.49,33.24c-.5-1.99.53-4.05,2.43-4.84,2.39-1,3.67-3.61,2.99-6.11l-4.91-18c-.77-2.82-3.72-4.43-6.51-3.56l-38.78,12.18c-2.7.85-4.21,3.71-3.39,6.41,10.19,33.68,63.19,230.78-91.37,230.78S49.39,53.02,59.58,19.33c.82-2.71-.69-5.57-3.39-6.41L17.41.74c-2.79-.88-5.74.74-6.51,3.56l-4.91,18c-.68,2.5.6,5.11,2.99,6.11,1.9.79,2.93,2.85,2.43,4.84-7.62,30.53-56.46,253.24,139.54,253.15,196,.08,147.16-222.63,139.54-253.15Z"/><text class="cls-2" transform="translate(18.97 45.81) rotate(99.16)"><tspan x="0" y="0"> </tspan></text><text class="cls-2" transform="translate(17.07 57.45) rotate(97.17)"><tspan x="0" y="0">U</tspan></text><text class="cls-2" transform="translate(13.37 96.16) rotate(91.38)"><tspan x="0" y="0">N</tspan></text><text class="cls-2" transform="translate(13.86 135.6) rotate(84.12)"><tspan x="0" y="0">C</tspan></text><text class="cls-2" transform="translate(19.86 174.44) rotate(74.02)"><tspan x="0" y="0">L</tspan></text><text class="cls-2" transform="translate(33.64 211.48) rotate(59.16)"><tspan x="0" y="0">E</tspan></text><text class="cls-2" transform="translate(57.71 243.09) rotate(39.02)"><tspan x="0" y="0">_</tspan></text><text class="cls-2" transform="translate(91.19 263.99) rotate(18.44)"><tspan x="0" y="0">C</tspan></text><text class="cls-2" transform="translate(130.27 273.11) rotate(3.28)"><tspan x="0" y="0">A</tspan></text><text class="cls-2" transform="translate(170.16 273.05) rotate(-8.04)"><tspan x="0" y="0">L</tspan></text><text class="cls-2" transform="translate(208.97 264.12) rotate(-24.64)"><tspan x="0" y="0">L</tspan></text><text class="cls-2" transform="translate(243.48 242.96) rotate(-45.52)"><tspan x="0" y="0">_</tspan></text><text class="cls-2" transform="translate(267.58 212.05) rotate(-64.45)"><tspan x="0" y="0">D</tspan></text><text class="cls-2" transform="translate(281.73 174.71) rotate(-76.81)"><tspan x="0" y="0">I</tspan></text><text class="cls-2" transform="translate(287.32 143.37) rotate(-85.5)"><tspan x="0" y="0">N</tspan></text><text class="cls-2" transform="translate(288.78 104.04) rotate(-92.49)"><tspan x="0" y="0">E</tspan></text><text class="cls-2" transform="translate(285.95 66.83) rotate(-98.34)"><tspan x="0" y="0">R</tspan></text><g><path class="cls-4" d="m39.22,13.4c.04-.08.09-.27.03-.24l-.13.31.1-.06Z"/><path class="cls-4" d="m39.08,12.72c-.1.14-.24.39-.29.69.14-.29.12-.16.28-.51.06-.02.05.13.01.24.04-.08.05.09.14-.1,0-.26-.07-.3-.2-.12,0-.07.04-.15.06-.21Z"/><path class="cls-4" d="m34.62,10.9l.02.05s0-.04-.02-.05Z"/><path class="cls-4" d="m31.82,9.9s.04-.03.05-.06c-.03.02-.05.03-.05.06Z"/><path class="cls-4" d="m31.43,9.41s.02.02.02.03c0-.03,0-.05-.02-.03Z"/><path class="cls-4" d="m34.62,10.9l-.05-.12c-.04.1.02.09.05.12Z"/><path class="cls-4" d="m38.22,13.31s.04-.04.07-.07c-.02,0-.03.02-.05.02l-.02.05Z"/><path class="cls-4" d="m35.95,11h.02s.04-.07.06-.12l-.08.12Z"/><path class="cls-4" d="m36.93,11.23s-.1.25-.15.37c.04-.11.08-.16.1-.17.02-.05.03-.11.05-.19Z"/><path class="cls-4" d="m38.32,12.15l.04-.03-.04.03Z"/><path class="cls-4" d="m35.28,10.75s.01-.08.02-.1c0,.03-.02.07-.02.1Z"/><path class="cls-4" d="m13.85,13.99s-.03-.01-.05-.02c.02.02.04.03.05.02Z"/><polygon class="cls-4" points="11.94 14.31 11.94 14.29 11.83 14.17 11.94 14.31"/><path class="cls-4" d="m30.64,8.81h0s.02-.02,0,0Z"/><path class="cls-4" d="m22.41,6.65c.02.27-.24.27-.18.57.02-.11.25-.38.18-.57Z"/><path class="cls-4" d="m38.2,13.26s-.03,0-.04,0c.02.01.03.02.04,0Z"/><path class="cls-4" d="m22.23,7.22h0s0,.03,0,.03c0-.01,0-.02,0-.03Z"/><path class="cls-4" d="m28.54,8.38s-.01.09-.01.12c0-.03.01-.06.01-.12Z"/><path class="cls-4" d="m29.96,9.2l-.03-.05s.02.04.03.05Z"/><path class="cls-4" d="m27.64,8.53s-.01-.07-.05-.04c0,.01,0,.02,0,.04.02-.03.04-.05.05,0Z"/><path class="cls-4" d="m26.81,8.29s0,.04,0,.06h.03s-.03-.06-.03-.06Z"/><path class="cls-4" d="m14.43,11.03c-.08,0-.17.01-.26,0,.2.01.26.15.26,0Z"/><path class="cls-4" d="m38.26,13.16c-.02.07-.04.1-.06.11.01,0,.02,0,.03,0,.01-.04.03-.08.03-.1Z"/><path class="cls-4" d="m26.99,10.65l-.12-.08s.07.06.12.08Z"/><path class="cls-4" d="m16.49,7.57l-.02.03s.02,0,.02-.03Z"/><path class="cls-4" d="m26.47,10.5c0-.1,0-.16-.02-.21-.01.02-.02.04-.04.07l.06.14Z"/><path class="cls-4" d="m14.17,11.04h0s0,0,0,0Z"/><path class="cls-4" d="m14.69,12.08c.03-.14-.35-.13-.55-.19-.08-.18.28-.04.48-.07-.08-.12-.41-.24-.38-.32.06,0,.08,0,.16.02-.28-.15.03-.32-.32-.49.03,0,.06,0,.09,0-.19,0-.37-.02-.51-.04,0-.06-.22-.14.02-.13-.01.03.09.05.16.08l-.1-.07c.35-.01.11.1.36.13-.1-.13-.37-.31-.26-.39.34.02.09.23.4.14l-.15.13c.54-.04-.05.08.53.05.12-.17-.15-.23-.03-.4-.18-.06-.28-.02-.46-.08-.3-.3.87-.09.45-.33-.22-.08-.64-.16-.39-.25l.37.1c.06-.16-.53-.18-.25-.31.14.06.11.15.15.13.32-.06-.2-.12-.19-.2l.34.04c-.02-.16-.23-.41-.24-.6.09.04.19.09.3.08-.11-.26.18-.42.42-.48l-.23-.18s.13.04.17.08c.13,0-.16-.09-.25-.17,0-.04.17.04.24.1-.18-.21-.25-.59.06-.47l.05.08c.13.02-.35-.5-.09-.37l.02.05c.22-.04.31-.4.63-.05-.12-.41.23.12.09-.45.2.25.19.36.37.53.04.02.02-.37.08-.44l.03.31.06-.33.06.37.05-.08s-.05-.14-.05-.23c.09-.15.24.21.23.37.07-.09.15-.17.24-.25-.02.12-.06.16-.09.24.14-.3,0,.33.13.05,0-.07.03-.18.03-.24.04.19.16.21.28.15l-.05.21c.16.08.39-.04.6.02-.05-.11.04-.47.12-.49l-.05.32c.09-.19-.04-.13.1-.36.07.06-.03.37-.1.47l.12-.09c-.02.1-.05.14-.09.26.09-.19.08.36.23.03l-.02.1c.21.06.34-.02.53.02.08-.27.14-.19.26-.39.11.13.21.38.38.41.16-.1.1-.22.2-.36-.06.25.11.27-.03.43.21.02.27.03.58-.1,0-.11-.02-.16.02-.24.06-.03.08.13.03.25l-.02.02c.39-.29.45.91.83.46l-.02.02.31-.2c.1.07-.12.17-.08.34.37-.34.39.18.67-.04-.05.77.59.12.68.64l.04-.17c.11-.15.04.12.07.17.03-.13-.02-.17.04-.25.54-.07.92.54,1.37.83.17.1.36-.86.47-.38l-.16.3c.47-.28.74.23,1.19,0-.04.07-.07.16-.1.15,0,.25.27.09.33-.1.05.04-.04.17-.03.28.04.16.27-.24.25,0,0,.04-.04.07-.06.08.08-.1.22.09.25-.19.1.17.29-.04.35.14.16-.28.19.21.33-.21-.14.43.13.42.28.24-.07.12.03.16-.05.33.1.02.21-.03.26-.26.03.57.48-.32.39.38.35-.15.66-.23.95-.26-.13.43-.3-.04-.42.42.3-.11.54-.44.76-.26.05.08-.09.18-.13.25.3-.11.46.18.75,0-.01.04-.05.08-.08.1.05,0,.08.09.13-.11l-.06.04c.01-.31.34-.55.39-.7-.24.54.17.2-.15.88.04-.03.1-.11.13-.25.03.05.02.13-.06.27.18-.06.19-.29.33-.24-.03.1-.07.12-.11.23.12-.17.25-.33.34-.22-.02.06-.03.13-.07.12.21.03.49-.4.66-.15-.18.4.04.16-.06.52l.15-.07v-.19c.1.04.27-.2.33-.06l-.12.13h.21s-.07-.18-.07-.18c.16-.15.12-.46.23-.32-.04.03.1.03.1.26h0c.08-.1.17-.2.22-.09-.01.12-.13.39-.14.47.14-.29.27-.01.42-.31-.04.07-.1.26-.1.3l.11-.23c.03.09.02.13-.03.28.13.09.09-.47.2-.22-.02.02-.02.05-.06.08.14.15.38-.06.5.11-.06.37-.16.05-.2.37.25,0,.6-.3.8-.15l-.03-.05c.18-.5.09.3.27.09-.04.03-.12.27-.09.22.13.13.35-.04.62-.13l-.07.12c.06.14.22.14.3.22.07-.12.12-.09.14-.29.08.83.68-.24.77.46-.03,0-.11.09-.08.1l.26-.06c.05-.23,0-.14.01-.33.07-.12.16-.21.22-.19-.14.12-.1.36-.09.49.01-.07.05-.14.07-.21,0,.43.15-.44.23-.13l-.04.11c.08-.04.18-.18.23-.13-.05.26-.1.1-.16.31.1.01.32-.43.33-.15-.06.06-.12.05-.17.11,0,.33.04.25.09.32h0s.11.17.11.17l-.02-.09c.31-.64.27-.06.55-.45-.27.37-.09.23-.19.52.02.09.05.2,0,.28.14-.21.07.22.27-.09-.02.09.07.03,0,.26.12-.05.02-.17.07-.28.24-.28.23.49.57.11.23-.13.36-.44.57-.54.01.17-.14.33-.14.33.05.16.13.16.24.08-.04.08-.04.15-.05.26.08,0,.14-.33.2-.16-.05.1-.11.26-.18.36.11-.06.24-.21.35-.27-.02.17-.12.23-.18.33.12-.05.29-.08.39-.33l-.03-.11s-.05.23-.09.27c-.14.18-.09-.12-.07-.22l.08-.04c.1-.57-.27.02-.38-.05l.17-.39-.22.3c0-.11.05-.34.13-.38-.03-.22-.12.12-.13-.12,0-.04.01-.05.02-.07l-.12.09c.04-.08.07-.29.1-.21-.09-.27-.33.23-.3-.09l.02-.02c-.25.07-.11.29-.36.59l.1-.75-.11.29s-.06-.05-.01-.17c-.14.18-.02.13-.12.31-.03-.3-.32.04-.21-.43-.1.21.05.2-.11.32.11-.51-.15.05-.18-.21.1-.25.15-.09.13-.35-.18.42-.16-.15-.26-.09-.1.35-.22.09-.39.17.04-.11-.2-.26-.29-.43l.02-.06c-.13.35-.24.24-.35.29.06-.21.11-.29.18-.37l-.09-.02c-.05.11-.1.16-.17.18l.1-.26c-.12-.02-.33.24-.43.02-.08.24-.08.72-.28.84.03-.13.09-.36.15-.41-.02.01-.08.1-.09.03l.13-.21c-.04-.12-.09.18-.14.14.06-.19,0-.15.05-.3.02-.01.03.09.07.02-.05-.05-.1-.19-.08-.34-.03.11-.07.26-.13.27-.12-.02.03-.24-.02-.36-.07.12-.1-.03-.19.25-.03-.01,0-.15,0-.23-.1.11-.3-.05-.31.28v.02s0,0,0,0h0s0,0,0,0c-.28.22-.37-.28-.6-.22l.03-.09c-.15.07-.28-.01-.43.17-.03-.01-.03-.2.01-.31-.11.05-.15.15-.24-.05.14-.14.01-.16.13-.09-.09-.12-.08-.28-.28-.05.11-.23,0-.33-.08-.28l.03.2c-.07.02-.12-.02-.17-.06l.12-.31c-.13-.46-.63.54-.62-.17-.13.21.09.2-.05.44-.1-.08-.08-.57-.12-.58-.1-.22-.28.43-.4.26-.01.12-.08.43-.23.5-.1-.07,0-.52.1-.59.03,0,.03.04.02.08.05-.03.11-.07.1-.2l-.05.11c-.02-.13-.18-.16-.09-.34-.12.08-.09.18-.04.25-.09-.21-.22-.07-.34-.22,0,.07-.01.21-.03.2-.17-.2-.16.19-.32.2-.03-.2.15-.41-.04-.3-.06-.14.07-.31.13-.39-.2.18-.21-.22-.27-.28l.1-.07c-.06.04-.09.03-.13.02l-.03.24c-.03-.05-.06-.06-.04-.16-.09.14-.08.39-.22.57-.02-.13-.2.08-.14-.23.14.15.07-.31.23-.32-.04.03-.07.02-.1-.04,0-.04.02-.06.04-.08-.09-.32-.17.32-.34.26.07-.16.05-.33.02-.31.07.02-.05.29-.15.41-.07-.16-.15.06-.2.03l.05.08c-.07.16-.12.13-.21.16.03-.13.1-.07.09-.14-.17.28-.1-.37-.28-.2-.02-.13.09-.32.06-.41-.2.18-.08-.28-.27-.13-.03.24,0,.19-.17.38l.28-.09-.24.29c.07.02.19-.1.22-.05-.12.17-.1.11-.12.31,0-.37-.25.15-.29-.12l.17-.57c-.09-.3-.38.21-.55,0l.04.12c-.09.22-.14,0-.24.06.06-.19.04-.27.04-.4-.04.14-.15-.06-.28.32l-.02-.28c-.14-.15-.35.48-.5.37.11-.19.07-.35.23-.46-.06-.02-.09-.07-.13.06,0-.13-.23.21-.23.02-.05.08-.11.27-.17.24,0-.04.03-.09.03-.09-.03.09-.13.1-.14.33,0-.64-.49-.1-.49-.65-.14.03-.3.05-.42.03.02-.05.03-.09.04-.07-.1-.22-.25.52-.37.27,0-.33.14-.14.12-.27.16-.63-.23.02-.24-.37l.04-.03c-.03-.24-.29.17-.42.09,0,0,.02-.05.03-.09-.19.29-.41.34-.57.39.11-.23.1-.11.15-.37-.07.02-.1.4-.24.44,0-.15-.06-.29,0-.56l.12.02c.04-.36-.16-.03-.2-.11l.05-.15c-.19,0-.31.37-.49.29v.12c-.23.34-.04-.24-.23.01l.08-.39c-.1.07-.35.3-.5.33.15-.26.34-.36.48-.5-.07-.02-.24-.04-.33.14.04-.03.1-.11.11-.04-.17.27-.33.39-.46.34.24-.73-.31-.29-.24-.89-.32.2-.45-.26-.75-.29-.06.6-.09,0-.24.58-.08.02-.1,0-.09-.04l-.1-.41c0-.18.1-.11.13-.24-.13-.09.01-.27-.04-.45-.04.22-.14.29-.2.18l.04.3c-.29.25-.03-.54-.33-.29l.12-.17c-.14.08-.39-.12-.63.33,0-.07.02-.24.08-.27-.23-.14-.7.34-.82,0l.06-.14c-.06.03-.16.25-.18.08.02-.06.06-.14.04-.15-.04.04-.2.22-.24.11l.1-.15c-.19-.26-.49.29-.72.32.12-.42-.03-.62-.11-.71l.02-.06c-.28-.14-.61.21-.93.3-.06-.51-.56-.34-.83-.65.04.09-.06.34-.12.37-.06-.1-.24.27-.18-.12h.03c0-.39-.18-.31-.3-.33l-.07.52c-.12-.4-.36-.34-.55-.26-.2.08-.37.18-.5-.15-.07.14-.18.15-.24.3l-.04-.28c-.26-.03-.4-.03-.69.13v-.22c-.2.05.05.85-.07.91l-.21-.37c-.26.12-.78,0-.78.51-.03-.05-.1-.15-.07-.2-.12.08-.66.19-.2.56-.27-.26-.24.23-.2.44l-.21-.19c.2.32.27.37.27.57-.05.01-.21-.09-.12-.1-.19.04.17.23-.04.29l-.12-.14c-.09.11,0,.15.15.31.06.12-.16.19-.4.11.13.08.3.22.2.27-.09-.02-.14-.07-.16-.1-.27.15.19.41-.11.47-.09-.02-.14-.03-.17-.02.06-.17.11-.29.13-.28-.25-.09-.33.04-.63-.18.15.19.49.49.34.59-.03,0-.05,0-.09,0l-.02-.02s-.02.06.02.1c-.05.03-.09.05-.1.09-.21-.03-.15.13-.17.2.28.05.21.13.46.1-.02,0-.03-.02-.03-.07,0-.01,0-.02-.02-.03h.02s0-.09.02-.16c.13.09.23.16.07.2.17.07.34.15.43.18-.4,0-.65.14-.89.13.13.22.03.49.54.68.06.06-.16.04-.24.05-.05-.04-.04-.07-.11-.1.12.13.01.33.37.4-.18.11-.33-.12-.29.08l-.11-.04c-.63.28.87.7.06.99.05-.02.07-.03.13-.03-.39.37.16.96-.46,1.22-.14.07.09.15.23.28l-.29-.08.29.23c.15.27-.79-.04-.44.33l.19.08c-.07.04-.03.26-.22.13.03.03.16.14.06.1l-.13-.09c.04.1.09.21.12.31-.18.03-.48-.4-.61-.3.01.08.21.46.29.52.02-.02.12.01.23.12v.12c.32.34.58.77,1,.79-.02-.11-.05-.23-.08-.33l.21.1-.1.13c.22.07.12-.1.06-.23.1.07.19.1.25.1-.07-.14-.15-.28-.24-.41.16.09.25.28.4.24-.12-.19-.38-.17-.41-.36.22.05.35.16.25-.02.11.05.16.11.18.18-.07-.16.08-.24-.11-.41.29.05.07-.29.46-.09-.08-.07-.25-.29-.23-.37.43.34.15-.26.66-.03-.41-.26-.08-.44-.28-.69.03.02.1.06.07.07.07-.09.21-.08.31-.12-.38-.11-.43-.28-.65-.41.4-.03.43.17.8.21-.31-.07-.26-.28-.53-.29.25-.04.13-.05.45-.04-.48-.11-.07-.1-.35-.22.26-.08.46.05.33-.12.16-.04.31.11.31.11Zm-.38-3.07h0s0,.04,0,.06c0-.01,0-.03,0-.06Zm.06-.21s-.03.05-.04.09c-.1-.02-.19-.06-.18-.08.06.03.13,0,.21-.01Zm-2.02.03c-.03-.05.03-.06.09-.05,0,.02,0,.05.02.09h.03c-.05,0-.1-.02-.13-.04Z"/><path class="cls-4" d="m12.69,8.99s.02.01.02.02c.03,0,.05,0,.07-.01l-.08-.03v.02Z"/><path class="cls-4" d="m34.64,10.95h0s0,.02,0,.03c0-.01,0-.02,0-.03Z"/><polygon class="cls-4" points="16.3 7.72 16.29 7.65 16.28 7.72 16.3 7.72"/><path class="cls-4" d="m35.72,12.27s0,.05,0,.07c0-.02,0-.04,0-.07Z"/><path class="cls-4" d="m36.29,12.5l.05.12c-.02-.06-.04-.1-.05-.12Z"/><path class="cls-4" d="m36.7,12.76s.03-.08.04-.11h0s-.04.11-.04.11Z"/><path class="cls-4" d="m29.47,11.02s-.01,0-.02,0c-.06.04-.02.03.02,0Z"/><path class="cls-4" d="m31.78,11s-.07.08-.11.11c.03.03.06.05.11-.11Z"/><polygon class="cls-4" points="27 10.66 27 10.66 26.99 10.65 27 10.66"/><path class="cls-4" d="m31.57,11.08c.02.06.06.06.1.03-.03-.03-.05-.07-.1-.03Z"/><path class="cls-4" d="m38.61,13.45l.02.02s.01-.03.02-.04l-.03.03Z"/><path class="cls-4" d="m38.65,13.42l.03-.02s-.02,0-.03.02Z"/><path class="cls-4" d="m38.75,13.34l-.07.05s.04.02.07-.05Z"/><path class="cls-4" d="m38.05,13.15l-.04.1s.02-.05.04-.1Z"/><path class="cls-4" d="m37.87,13.13s.05.24.13.2l.03-.08c-.07.14-.07-.27-.15-.12Z"/><path class="cls-4" d="m37.46,11.7l.13.12c0-.11,0-.26.09-.27-.1-.37-.03.24-.21.15Z"/><path class="cls-4" d="m37.04,11.41c.1-.03.04-.15.06-.21-.08.08-.1.1-.06.21Z"/><path class="cls-4" d="m33.64,10.43l.08-.24c-.07.02-.03.1-.08.24Z"/><polygon class="cls-4" points="32.63 11.52 32.65 11.69 32.74 11.47 32.63 11.52"/><polygon class="cls-4" points="32.75 9.65 32.79 9.63 32.66 9.69 32.75 9.65"/><path class="cls-4" d="m27.03,8.1l-.07.31c.06-.04.17-.38.07-.31Z"/><path class="cls-4" d="m24.48,7.7c.02-.16-.02-.28-.11-.14.05.04.07.17.11.14Z"/><polygon class="cls-4" points="16.94 5.2 17.01 5.1 16.89 5.18 16.94 5.2"/></g><g><path class="cls-4" d="m290.5,19.14c.08-.03.23-.16.17-.18l-.29.16.13.03Z"/><path class="cls-4" d="m290.79,18.46c-.17.03-.46.11-.69.31.31-.11.21-.02.57-.17.06.03-.03.14-.14.2.08-.03,0,.12.18.03.17-.21.13-.29-.11-.26.05-.06.13-.09.19-.11Z"/><path class="cls-4" d="m289.8,13.16l-.03.04s.03-.03.03-.04Z"/><path class="cls-4" d="m289.45,9.72s.05.03.08.02c-.03-.02-.05-.03-.08-.02Z"/><path class="cls-4" d="m289.64,9.02s0,.03-.01.04c.03-.02.04-.04.01-.04Z"/><path class="cls-4" d="m289.8,13.16l.09-.1c-.11,0-.07.06-.09.1Z"/><path class="cls-4" d="m289.7,18.16s.06.01.1.01c-.02,0-.04-.02-.05-.03l-.05.02Z"/><path class="cls-4" d="m290.27,14.58v.03s.09,0,.14,0l-.14-.03Z"/><path class="cls-4" d="m290.54,15.64s-.27.03-.39.05c.12-.01.17,0,.2,0,.05-.01.11-.03.19-.06Z"/><path class="cls-4" d="m290.61,17.43h.05s-.03,0-.05,0Z"/><path class="cls-4" d="m290.22,13.78s.08-.02.1-.02c-.04,0-.07.01-.1.02Z"/><path class="cls-4" d="m265.61,13.47s-.01-.03-.02-.05c0,.03.01.05.02.05Z"/><polygon class="cls-4" points="263.84 12.71 263.85 12.69 263.79 12.54 263.84 12.71"/><path class="cls-4" d="m289.57,7.79h0s.03,0,0,0Z"/><path class="cls-4" d="m279.93,4.63c.2.19-.04.37.22.56-.06-.09-.03-.46-.22-.56Z"/><path class="cls-4" d="m289.72,18.11s-.02-.03-.02-.05c0,.03,0,.04.02.05Z"/><path class="cls-4" d="m280.16,5.19h0s.03.02.03.02c-.01,0-.02-.01-.03-.02Z"/><path class="cls-4" d="m287.94,5.46s-.05.07-.07.1c.02-.02.04-.05.07-.1Z"/><path class="cls-4" d="m288.76,7.4v-.06s0,.05,0,.06Z"/><path class="cls-4" d="m286.85,4.97s0-.07-.05-.06c0,.01,0,.02-.01.03.03-.02.06-.02.06.03Z"/><path class="cls-4" d="m285.87,4.36s0,.04,0,.06h.04s-.04-.06-.04-.06Z"/><path class="cls-4" d="m268.3,12.17c-.05-.06-.1-.14-.14-.21.09.18-.01.3.14.21Z"/><path class="cls-4" d="m289.84,18.08c-.07.03-.1.03-.12.02l.03.03s.07-.03.09-.05Z"/><path class="cls-4" d="m285.46,6.69l-.06-.1s.03.08.06.1Z"/><path class="cls-4" d="m274.76,9.36l-.02.05s.02-.01.02-.05Z"/><path class="cls-4" d="m285.11,6.46c.03-.1.04-.16.04-.2-.01.02-.03.03-.05.06v.14Z"/><path class="cls-4" d="m268.16,11.95h0s0,0,0,0Z"/><path class="cls-4" d="m267.48,12.97c.14-.05-.08-.36-.13-.57.12-.17.18.22.31.37.06-.13,0-.48.09-.5.03.05.05.07.07.14,0-.32.31-.15.29-.54.02.03.04.05.05.08-.09-.16-.17-.33-.22-.46.06-.03.02-.26.14-.05-.04,0,0,.1,0,.18l.02-.12c.19.29-.04.15.06.38.08-.16.11-.48.25-.44.15.3-.18.2.07.42l-.2-.06c.32.44-.1,0,.23.49.23,0,.15-.25.38-.25-.03-.19-.12-.25-.15-.44.14-.43.55.69.58.19-.04-.23-.19-.63.05-.49l.1.37c.2-.05-.11-.55.19-.4.02.15-.1.18-.05.21.25.22,0-.24.1-.28l.15.3c.18-.14.31-.46.5-.61.03.1.03.21.12.29.21-.28.62-.22.97-.15v-.31s.09.1.08.17c.15.06-.07-.17-.06-.3.05-.04.15.12.14.22.09-.31.32-.72.64-.52v.1c.2.04-.07-.63.18-.44v.06c.38-.03.64-.43,1.06-.13-.12-.41.4.03.19-.52.3.19.29.31.64.37.08,0-.04-.38.03-.48l.12.28v-.35s.2.31.2.31l.05-.11s-.12-.1-.15-.18c.07-.18.4.06.47.21l.2-.37c.04.12,0,.18,0,.27.04-.36.16.29.19-.04-.05-.06-.06-.17-.08-.23.15.14.32.07.41-.06l.06.21c.25-.05.44-.3.69-.4-.13-.05-.25-.4-.19-.46l.16.29c-.03-.21-.13-.08-.12-.35.11,0,.21.31.2.43l.07-.15c.05.09.04.15.08.26-.03-.21.33.21.26-.14l.04.09c.26-.11.33-.26.53-.36-.11-.26,0-.24-.03-.47.19.02.44.15.62.05.07-.18-.06-.24-.06-.41.11.23.28.13.26.34.2-.13.26-.17.46-.48-.07-.08-.12-.11-.14-.2.03-.06.16.05.2.17v.03c.16-.49,1.01.38,1.05-.22v.03s.15-.37.15-.37c.14-.01,0,.21.15.32.11-.51.46-.13.58-.49.48.62.61-.32,1.02.04l-.08-.16c0-.19.11.07.17.09-.06-.13-.12-.12-.12-.23.42-.4,1.1-.13,1.53-.04.15.02-.05-.93.21-.53l-.02.33c.29-.43.58-.02.91-.29-.03.07-.05.17-.08.16.01.24.2.05.26-.13.04.03-.04.17-.04.28,0,.15.24-.25.19-.02,0,.04-.04.07-.06.08.08-.1.15.1.22-.18.04.17.25-.04.26.17.21-.24.09.23.34-.14-.24.37-.04.42.15.3-.1.09-.03.15-.17.28.07.04.18.02.32-.16-.25.51.55-.09.12.48.36.02.65.13.9.29-.37.25-.21-.21-.58.09.29.06.69-.02.74.25-.02.09-.19.07-.26.1.29.11.21.43.53.52-.04.02-.09.02-.13.01.03.03-.01.12.17.03l-.07-.02c.23-.2.64-.11.79-.16-.57.18-.03.28-.76.47.05.01.15,0,.28-.06-.02.06-.09.1-.25.12.16.11.34-.03.4.11-.09.04-.14.02-.25.05.21,0,.42,0,.39.15-.06.01-.13.06-.14.02.1.19.62.19.51.49-.43.06-.11.12-.47.24l.14.09.16-.1c.03.11.32.14.22.27l-.17-.04.12.19.11-.15c.21.07.45-.13.39.05-.04-.02.02.12-.18.23h0c.13.03.27.07.19.17-.11.05-.41.06-.48.1.32,0,.14.25.48.26-.08-.01-.27.02-.31.04h.26c-.07.07-.11.09-.26.1-.02.17.46-.13.29.1-.02-.01-.06,0-.1-.03-.07.21.22.36.12.56-.36.11-.11-.15-.42-.04.1.25.52.49.46.76l.04-.05c.53-.03-.24.23.03.33-.04-.03-.3,0-.24,0-.06.19.17.35.37.6l-.14-.02c-.11.12-.04.29-.08.41.14.02.13.09.32.02-.72.46.5.62-.09,1.03,0-.04-.13-.07-.13-.04l.17.25c.22-.06.13-.06.3-.14.14.01.26.07.27.13-.17-.09-.37.06-.48.14.07-.02.15-.02.22-.03-.38.21.46-.06.22.18h-.12c.07.07.24.11.23.19-.26.08-.14-.05-.35-.01.04.11.54.11.3.26-.08-.03-.1-.1-.18-.13-.29.17-.21.17-.24.26h0s-.1.21-.1.21l.07-.07c.71-.02.18.25.68.32-.47-.06-.25.03-.55.1-.07.07-.14.17-.23.17.26.02-.14.2.23.23-.09.03.02.1-.22.15.11.09.15-.08.27-.1.38.07-.26.55.28.65.26.15.57.06.81.17-.11.13-.35.09-.35.09-.08.16-.02.23.12.28-.09.02-.14.07-.23.15.06.07.34-.1.26.06-.11.03-.27.09-.39.1.13.06.34.06.47.11-.13.11-.26.07-.37.09.13.07.29.21.54.1l.05-.11s-.19.14-.25.13c-.23.01,0-.18.09-.23l.09.03c.47-.35-.23-.21-.26-.37l.4-.13-.37.02c.08-.08.29-.19.37-.16.14-.18-.17-.02,0-.19.03-.02.05-.03.07-.03l-.15-.04c.09-.02.26-.13.23-.05.15-.25-.39-.14-.13-.32h.03c-.22-.17-.29.1-.7.04l.67-.37-.3.08s0-.08.13-.11c-.23-.02-.12.06-.32.07.23-.2-.23-.29.23-.45-.23.02-.14.16-.33.08.49-.18-.13-.12.08-.29.27-.04.16.1.36-.07-.46.05.04-.23-.06-.29-.35.08-.19-.16-.35-.29.12-.02.14-.33.24-.49h.06c-.37.03-.33-.13-.42-.22.22-.03.31-.03.41.01l-.02-.1c-.12,0-.19-.03-.24-.08l.28-.02c-.04-.13-.36-.22-.21-.42-.26.03-.69.24-.88.08.14-.03.37-.07.43-.03-.02-.01-.12-.04-.07-.08l.24.04c.09-.09-.2-.01-.19-.08.2-.03.13-.07.29-.08.02.01-.07.07,0,.08.02-.08.13-.18.27-.23-.11.02-.26.04-.3-.01-.03-.14.23-.08.32-.17-.14-.02-.01-.12-.3-.09,0-.04.13-.07.21-.09-.14-.05-.08-.33-.38-.21l-.02.02h-.01s0,0,0,0h0c-.32-.2.11-.51-.05-.73h.1c-.13-.14-.1-.32-.33-.39,0-.04.17-.12.29-.12-.09-.1-.2-.1-.06-.27.19.09.15-.06.14.1.07-.15.22-.21-.07-.32.26.02.3-.15.22-.21l-.17.12c-.05-.07-.03-.14-.02-.21h.33c.35-.37-.76-.42-.14-.77-.24-.04-.13.19-.41.17.02-.14.46-.38.45-.43.14-.23-.51-.08-.44-.3-.11.05-.41.15-.55.03.01-.14.44-.29.56-.22.02.03-.01.06-.05.06.05.03.12.08.23,0h-.12c.1-.09.04-.28.24-.28-.14-.08-.2,0-.24.1.12-.22-.07-.28-.02-.49-.05.05-.18.11-.19.09.06-.31-.25-.05-.36-.2.14-.16.42-.1.22-.23.08-.15.29-.13.4-.11-.28-.09.04-.36.03-.48l.13.05c-.07-.03-.09-.08-.11-.12l-.2.14c.02-.07,0-.11.09-.15-.17,0-.35.19-.59.16.08-.11-.2-.15.08-.29-.01.25.28-.15.4.01-.05-.02-.07-.06-.05-.13.03-.02.06-.02.09-.01.17-.32-.36.05-.45-.16.17-.05.28-.19.23-.21.04.09-.25.17-.41.15.06-.19-.16-.1-.18-.17l-.02.11c-.17.05-.18-.02-.28-.08.12-.07.13.03.16-.02-.33.05.16-.37-.1-.41.07-.12.29-.17.32-.27-.28-.04.1-.3-.16-.36-.17.18-.12.15-.38.17l.31.17-.4.02c.05.08.23.08.23.15-.21.02-.16,0-.31.14.24-.29-.31-.09-.18-.33l.49-.33c.1-.34-.48-.15-.53-.47l-.02.14c-.21.12-.13-.12-.27-.13.16-.12.17-.21.24-.32-.11.1-.14-.17-.44.08l.1-.28c-.1-.25-.59.22-.7.03.19-.12.2-.29.42-.3-.06-.05-.09-.13-.18-.03.05-.13-.34.07-.27-.12-.08.05-.21.21-.27.15.02-.04.06-.08.06-.08-.06.08-.18.03-.25.25.17-.65-.53-.29-.47-.84-.19,0-.39-.04-.54-.07.03-.05.03-.09.05-.07-.15-.24-.3.5-.45.24-.03-.34.16-.13.12-.27.13-.64-.3,0-.39-.38l.05-.03c-.1-.24-.35.19-.54.13,0,0,.01-.06,0-.1-.17.32-.41.42-.58.53.04-.26.08-.14.03-.39-.08.04.04.41-.11.49-.06-.14-.19-.24-.24-.52l.16-.03c-.12-.35-.21.03-.3-.02v-.16c-.26.09-.19.48-.44.5l.05.11c-.04.41-.16-.19-.22.12l-.14-.37c-.07.12-.2.45-.33.57,0-.3.13-.5.21-.7-.09.02-.29.12-.28.31.02-.05.04-.15.09-.1-.02.33-.1.52-.26.56-.23-.73-.49-.03-.82-.54-.18.38-.61.12-.9.3.34.5-.08.05.18.61-.06.07-.09.07-.11.04l-.36-.24c-.12-.14.02-.15-.04-.28-.18.02-.17-.21-.34-.31.11.19.07.31-.06.27l.24.2c-.09.39-.39-.39-.49,0v-.21c-.08.15-.43.18-.35.68-.05-.06-.14-.2-.11-.26-.3.05-.41.74-.74.56l-.04-.15c-.03.06.02.3-.1.19-.02-.06-.04-.15-.07-.14,0,.06-.03.3-.14.25v-.18c-.35-.07-.26.55-.44.74-.17-.4-.44-.45-.57-.47l-.02-.06c-.33.08-.39.56-.61.84-.37-.36-.69.08-1.08-.05.08.05.13.32.09.38-.1-.05-.07.36-.21-.01h.03c-.21-.35-.3-.19-.42-.15l.19.49c-.59-.58-.63.58-1.06.01-.02.15-.1.19-.12.34l-.11-.26c-.22.01-.33.02-.53.19l-.03-.21c-.14.04.15.82.04.89l-.2-.37c-.23.1-.61-.14-.68.31-.02-.06-.06-.17-.03-.21-.11.04-.53-.08-.26.43-.15-.35-.25.07-.31.27l-.09-.26c.04.37.07.46-.04.62-.05-.02-.12-.19-.04-.15-.17-.08.01.28-.19.21l-.02-.19c-.13.03-.08.12-.06.33-.03.13-.25.03-.37-.19.04.15.06.36-.04.33-.05-.08-.04-.15-.04-.18-.27-.09-.17.42-.41.23-.04-.08-.07-.12-.09-.14.16-.06.29-.1.29-.08-.1-.24-.25-.22-.28-.59-.03.22-.04.68-.21.63-.02-.02-.03-.04-.05-.07v-.03s-.05.02-.06.07c-.06-.02-.09-.04-.13-.03-.1-.19-.19-.04-.26-.02.12.26.01.25.18.43-.02-.01,0-.04.04-.06,0-.01.02-.02.02-.04v.02s.1-.05.16-.09c0,.15,0,.29-.13.17.04.18.07.37.09.46-.24-.32-.49-.45-.61-.66-.13.23-.42.29-.33.83-.03.09-.12-.11-.18-.18.01-.06.05-.07.04-.15-.06.17-.31.19-.19.54-.21-.09-.06-.35-.22-.21l-.02-.11c-.61-.38-.24,1.13-.96.61.05.03.07.04.1.1-.61-.1-.86.71-1.54.42-.18-.04-.1.18-.11.38l-.15-.27v.38c-.1.32-.64-.53-.7.02l.11.17c-.11,0-.24.23-.32.01,0,.04.05.21-.02.12l-.06-.14-.11.34c-.22-.03-.22-.59-.48-.51-.07.1-.08.54,0,.62.04,0,.13.05.2.19l-.05.11c.17.43.29.9.63,1.11l.03-.32.14.19-.12.07c.15.17.12-.03.12-.17.06.11.11.17.16.2l-.03-.47c.09.16.08.36.21.41-.01-.22-.23-.35-.17-.52.15.16.2.33.21.13.06.11.07.18.06.25.02-.16.17-.14.11-.38.18.21.22-.17.39.24-.02-.11,0-.37.05-.42.09.54.26-.08.45.46-.1-.47.24-.33.3-.64,0,.04.02.12,0,.1.11,0,.19.12.28.18-.14-.37-.04-.51-.06-.76.26.3.11.45.29.77-.13-.29.07-.37-.07-.6.18.18.12.07.29.35-.18-.46.05-.11,0-.42.22.17.21.41.29.21.12.11.07.32.07.32Zm2.86-2.15h0s-.05.04-.06.05c.01,0,.03-.02.06-.05Zm.27-.12s-.08.02-.12.04c-.05-.09-.08-.18-.05-.19.01.07.1.09.17.15Zm-1.33-1.55c.03-.05.06-.01.09.04-.02.01-.04.03-.06.06v.03c0-.05-.02-.1-.03-.14Z"/><path class="cls-4" d="m269.34,9.53s0,.02,0,.03c.02.02.04.03.05.05l-.02-.09h-.02Z"/><path class="cls-4" d="m289.76,13.21h0s-.02,0-.04.01c.01,0,.02,0,.03-.01Z"/><polygon class="cls-4" points="274.52 9.61 274.49 9.55 274.49 9.61 274.52 9.61"/><path class="cls-4" d="m289.04,14.95s-.05.02-.07.03c.02,0,.04-.02.07-.03Z"/><path class="cls-4" d="m289.11,15.66l-.07.12c.05-.06.06-.09.07-.12Z"/><path class="cls-4" d="m289.11,16.24s.09-.01.12-.02h0s-.12.02-.12.02Z"/><path class="cls-4" d="m287.1,8.28s0,0-.02-.01c-.07-.01-.04,0,.02.01Z"/><path class="cls-4" d="m288.49,10.26c-.06-.01-.11-.03-.15-.05-.01.05,0,.08.15.05Z"/><polygon class="cls-4" points="285.46 6.71 285.47 6.7 285.46 6.69 285.46 6.71"/><path class="cls-4" d="m288.32,10.11c-.04.05-.02.09.02.11.01-.04.03-.09-.02-.11Z"/><path class="cls-4" d="m289.93,18.64v.03s.03-.02.04-.02h-.04Z"/><path class="cls-4" d="m289.97,18.65h.04s-.02-.01-.04,0Z"/><path class="cls-4" d="m290.11,18.68l-.09-.02s.02.05.09.02Z"/><path class="cls-4" d="m289.68,17.88l-.1.03s.05-.02.1-.03Z"/><path class="cls-4" d="m289.56,17.68c0,.06-.14.22-.05.26l.08-.03c-.15.03.15-.26-.03-.24Z"/><path class="cls-4" d="m290.43,16.39l-.02.19c.09-.06.22-.14.27-.08.24-.3-.22.12-.25-.11Z"/><path class="cls-4" d="m290.44,15.84c.07.08.15-.04.21-.05-.11-.03-.14-.04-.21.05Z"/><path class="cls-4" d="m289.83,11.93l.26-.02c-.05-.07-.1.01-.26.02Z"/><polygon class="cls-4" points="288.42 11.35 288.27 11.44 288.51 11.44 288.42 11.35"/><polygon class="cls-4" points="290.15 10.61 290.19 10.64 290.08 10.52 290.15 10.61"/><path class="cls-4" d="m286.17,4.23l-.12.29c.08-.02.26-.32.12-.29Z"/><path class="cls-4" d="m282.69,4.1c-.07-.15-.18-.22-.2-.06.08,0,.18.11.2.06Z"/><polygon class="cls-4" points="274.24 6.98 274.25 6.86 274.18 6.99 274.24 6.98"/></g><circle class="cls-1" cx="31.07" cy="34.06" r="8.34"/><circle class="cls-1" cx="269.12" cy="32.19" r="8.34"/><g><path class="cls-4" d="m287.05,26.81c-.17-.33-.31-.09-.04.88l.48.62-.44-1.49Z"/><path class="cls-4" d="m287.99,33.5c.43,1.11,1,2.37,1.13,1.55-.57-1.06-.51-1.37-1.16-2.5-.27-.97-.3-1.72-.14-1.59-.16-.33-.29-1.53-.61-2.01.05,1.33.42,2.93,1.02,4.56.01.38-.15.05-.23-.02Z"/><path class="cls-4" d="m298.69,130.27l.05-.63c-.02.17-.04.39-.05.63Z"/><path class="cls-4" d="m290.44,189.86c.14-.44.16-.63.14-.66-.11.41-.2.75-.14.66Z"/><path class="cls-4" d="m286.55,199.37c.09-.2.17-.37.26-.55-.12.2-.23.41-.26.55Z"/><path class="cls-4" d="m298.69,130.27l-.13,1.61c.11.12.1-.83.13-1.61Z"/><path class="cls-4" d="m291.76,46.47c-.09-.33-.18-.6-.28-.84.07.27.14.53.21.8.02.01.04.02.06.04Z"/><path class="cls-4" d="m298.17,103.61l-.02-.49c-.04-.14-.09-.28-.15-.4l.17.89Z"/><path class="cls-4" d="m296.54,83.25c.04.46.34.59.48.75-.15-.25-.24-.58-.31-.98-.05,0-.11.07-.17.23Z"/><path class="cls-4" d="m291.61,51.2l-.16-.56c.04.14.11.39.16.56Z"/><path class="cls-4" d="m298.43,118.25s-.08.11-.1.19c.04,0,.07-.07.1-.19Z"/><path class="cls-4" d="m9.7,51.31s.03,0,.05,0c0-.12-.02-.16-.05,0Z"/><path class="cls-4" d="m16.01,28.35l-.06.32s.09.09.14.1l-.08-.43Z"/><path class="cls-4" d="m277.73,215.9s.03-.04.05-.07c.22-.44.09-.2-.05.07Z"/><path class="cls-4" d="m128.75,280.25c1.92.47-3.21-.04-.3.57-.26-.14,2.71-.14.3-.57Z"/><path class="cls-4" d="m291.84,47c.06.27.12.54.18.82-.07-.38-.13-.63-.18-.82Z"/><path class="cls-4" d="m128.45,280.82h0s.3.06.3.06c-.12-.03-.19-.04-.3-.06Z"/><path class="cls-4" d="m250.81,249.47c.1-.02.25-.11.41-.2-.03-.01-.13.03-.41.2Z"/><path class="cls-4" d="m272.18,225.46l-.48.64c.2-.25.35-.45.48-.64Z"/><path class="cls-4" d="m237.61,259.68c-.38.2-.53.24-1.03.57.06-.02.11-.03.17-.06.17-.14.41-.29.85-.51Z"/><path class="cls-4" d="m222.04,267.45c.09-.02.21-.05.32-.07.16-.07.34-.15.51-.22l-.83.29Z"/><path class="cls-4" d="m2.32,104.27c.11-.38.21-.61.32-.79-.22.26-.09-2.33-.32.79Z"/><path class="cls-4" d="m291.61,46.51c.09.09.16.22.23.48-.05-.2-.1-.38-.14-.57-.05-.04-.09-.04-.09.08Z"/><path class="cls-4" d="m238.14,261.93l-2.47,1.37c.7-.37,1.6-.87,2.47-1.37Z"/><path class="cls-4" d="m28.57,226.07l-.4-.51c.14.21.27.39.4.51Z"/><path class="cls-4" d="m228.23,267.17c-.5.12-1.01.29-1.53.48-.1.07-.21.14-.27.2l1.79-.69Z"/><path class="cls-4" d="m2.64,103.47s0,0,0,0c0,0,0,0,0,0Z"/><path class="cls-4" d="m3.76,85.05c-.34,2.65.21,1.29.35,1.88-.25,3.18-.43,1.43-.74,2.49-.12,1.99.05,3.54-.13,5.01-.07.1-.13.39-.17.05.07,2.12-.49,6.22-.32,8.69-.05.18-.08.27-.12.31.22-.38.41-.43.53-.34-.09,1.19.07,2.22-.18,2.66.04-.73-.06-.8-.11-1.14,0,.42.03.84.04,1.26-.4,1.11-.05-1.71-.28-1.73-.04,2.45.16,5.3-.02,7.16-.36.38.07-4.38-.34-1.89l.25-2.89c-.63,2.18.11-1.76-.55.25-.24,3.81-.04,4.27-.23,8.08.18.86.28-.28.47.58.33,5.4-.9,4.26-.41,8.23.26,1.03.7,1.41.57,4.25l-.42-.95c.11,3.7.58,2.09.55,5.96-.23-.67-.28-2.89-.3-2.33-.2,2.52.32,1.76.44,3.68l-.31.42c.17,1.96.38,4.02.63,6.12.31,2.1.62,4.25.89,6.41-.13-.23-.31-.96-.31.07.09.68.18,1.37.27,2.07.1.7.21,1.4.32,2.12.21,1.42.4,2.87.57,4.31.32,2.89.76,5.74,1.11,8.36l.64,1.94c.08.46.02.88-.12.39.24,2.05.2.07.49,1.03.23,1.15.13,1.55-.11.84.97,3.52,2.53,10.06,3.1,13.85l-.25-.71c.53,2.94,1.32,3.15,1.65,5.91l-.17-.51c.67,3.17,1.57,6.49,2.57,9.57.99,3.08,2.02,5.94,2.8,8.32.68.73,2.5,5.97,3.24,6.07,1.5,3.41.82,2.57,3.33,7.19.69,1.22,1.43,1.57,2.41,3l-.24.2c.51.61,1.03,1.2,1.57,1.77l.41,1.23.99,1.29c-.36-.54-.67-1.21-.54-1.18.77,1.01,1.64,2.28,2.32,3.31.67,1.04,1.12,1.86,1.08,1.93,1.32,1.5,2.6,3.04,3.97,4.49-.18-.03-.87-.75-1.42-1.33,2.28,2.26.12.66,2.22,2.72-.2-.35.28.04.37.05.78,1.25,2.99,3.73,4.69,5.5l-.48-.2c2.94,3.32,6.43,6.77,9.9,10.32-1.17-1.35-.63-1.31.42-.29l.19.63c.83.51-1.02-1.14.56.02,1.32,1.31.65,1.13-.2.46l1.73,1.49c.03.16-.39-.17-.58-.17.41.25,1.07.99,1.78,1.75.73.74,1.56,1.45,2.19,1.75l.04.16c.97.8,1.8,1.5,2.58,2.1.81.57,1.53,1.07,2.23,1.57.7.49,1.38.96,2.09,1.46.72.48,1.51.94,2.37,1.48.22-.19,1.54.71,2.68,1.16,2.55,1.54,5.35,3.38,8.65,4.86,2.34.97.77.11,1.86.44.07.3,3.4,1.67,1.6,1.12,4,1.65,5.14,2.05,10.37,3.61-.53-.28-1.15-.52-.8-.5.96.26,2.11.77,1.94.85l-.26-.05c5.91,1.52,13.45,4.49,18.37,4.81l-.27-.03c1.67.25,3.34.44,5.02.61,2.28.42-1.41-.04.26.4,5.44.46,8.51,1.31,12.99,1.52,3.37,1.14,12.25,1.1,16.92,1.69l-.26-.19c1.22-.11,1.46.17,2.35.22-.12-.14-1.31-.19-.55-.27,10.25.1,21.24.06,31.7-1.54,1.91-.27,2.41-.6,3.04-.91.63-.31,1.38-.58,3.81-.84-.43.21-.86.39-1.29.59,7.56-1.86,15.49-3.63,22.64-6.21-.41.21-.39.31-1.1.53,1.6-.24,5.66-1.77,5.62-1.98,1.13-.35.32.08,1.04-.05.79-.18,1.72-.57,2.57-.92.85-.37,1.6-.7,2.05-.73.15-.01-.4.23-.67.34.95-.47,4.63-1.63,3.58-1.55,1.36-.44,2.61-1.01,3.8-1.52.6-.25,1.18-.5,1.74-.74.56-.25,1.1-.49,1.64-.69.61-.45,1.74-.93,2.75-1.36,1-.46,1.86-.92,1.97-1.21.01.25,1.17-.24,2.52-.93,1.33-.71,2.81-1.68,3.55-2.22-.46.42,1.44-.67.92-.15,1.76-1.1,3.3-2.22,2.88-2.21,1.78-.77,3.24-2.04,4.59-3.09,1.34-1.07,2.43-2.09,3.5-2.48,4.64-4.06,8.58-8.18,12.18-12.34.25.5-4.14,4.47-3.64,4.63.87-.99,1.64-1.87,2.37-2.7.72-.83,1.33-1.67,1.98-2.47,1.31-1.59,2.54-3.23,4.23-5.19.9-1-.33.71-.56,1.11,3.14-4.17,6.21-7.96,8.61-11.94.03.03-.22.47-.46.88.5-.76,1.25-1.72,1.03-1.75l-.46.77c-1.07,1.03,1.54-3.33,1.46-3.58-.35,1.63,2.59-3.77,1.89-1.3.29-.53.62-1.22.43-1.17.52-.73.74-.93.38-.08,1.61-2.86.8-1.99,2.32-4.53.08.06-.19.59-.24.92.29-.7.61-1.39.98-2.19.36-.81.81-1.7,1.44-2.79-.02.16.19-.06-.17.6.49-.96.96-1.84,1.34-2.73.37-.89.73-1.75,1.09-2.62.76-1.73,1.43-3.54,2.45-5.68-.16,1.44.78-1.41,1.19-1.52l.8-2.42-.53.89c.4-1.04.71-2.04,1.01-3,.29-.97.54-1.9.9-2.79l-.37,1.62,1.24-3.98-.87,2.2c.52-2.19-.52.08.5-2.69-.13.59.61-2.13,1.14-3.18h0c.18-1.08.39-2.19.84-3.77.22-.39.32.43.46.18-.02-.57.26-1.83.55-3.14.31-1.3.5-2.66.49-3.36-.01.46.17.53.24.39l-.07-.94c.28-.99.35-1.13.47-.94.64-3.03-.63.88.23-2.69-.03.29.03.16-.03.76.35-1.81.6-3.57.84-5.3.22-1.73.38-3.43.67-5.1.5-.95-.29,2.95.17,1.85.14-1.21.27-2.45.37-3.7.08-1.25.15-2.51.23-3.76.18-2.5.26-4.99.48-7.34l-.1.87c-.48-.69.52-3.49.37-5.89.01.59.26.78.21.62.12-1.61.18-3.27.19-5.13-.02-1.86-.04-3.93-.07-6.38l.12.61c.18-1.9.14-5.01.24-7.07-.13-.61-.09-1.79-.3-1.07.81-6.34-.42-12.08.03-17.72.02.67.17,1.6.16,1.06l-.29-4.79c-.22.39-.12.63-.26,1.65-.16-.6-.3-1.95-.37-3.13.27,2.14.37-.04.45-.97-.06.16-.16-.16-.23-.07.27-2.52-.49-.39-.4-3.82l.13.17c-.14-1.27-.4-2.43-.47-3.81.22-.59.23,1.35.45,1.42-.17-1.93-.77-3.77-.69-5.54.16.81.27,1.99.39,2.8.18-1.93.05-2.14-.03-3.56v.14s-.17-3.28-.17-3.28v.84c-.93-2.34-.68-4.9-1.55-8.08.84,3.09.32.49.66.69-.03-.84-.12-2.11.02-1.76-.47-1.49-.16-2.59-.85-4.69.08-.11-.26-1.63.04-1.33-.4-1.97-.09.5-.24.35-.81-3-.8-7.25-2.09-11.54-.93-3.73-1.37-4.36-2.28-7.81-.1-1.21.55.89.55.89-.26-1.92-.58-3.35-1.08-5.11.16.34.15-.04.14-.61-.34-1.43-.56-.88-.84-2.8.18.3.44.68.7,1.34-.49-1.66-.98-3.3-1.49-5.02.06-.5.5.99.74,1.58-.52-1.94-1.31-5.04-1.71-5.58l.2,1.28c-.18-.71.14-.42.31.1.59,1.63.47,2.44.39,2.56l-.35-1.23c-.26,1.4,1.22,4.96,1.74,7.47l-.64-.95.91,2.49c.01.57-.13.99-.46-.23.19,1.84.48,1.56.59,3.15,0,.18-.03.1-.08-.05l.49,1.73c-.16-.33-.23.35-.39-.74.44,3.19,1.35,5.02,1.28,6.27l-.08-.26c1,4.35.39.36,1.37,3.59l-.34,2.35.38.38c.07.46.21,1.36.06,1.21.51,1.65.08-.31.45.63.11,2.23,1.12,6.01.73,6.58.36.75-.16-2.12.37.19-.42.75.47,2.7.52,4.74-.36-.58-.48-2.5-.44-.46.65,1.15.4,3.92.69,5.6.39.04.56,3.67.95,6.51-.11-.17.25,5.39.28,8.05l-.07-.07c.39.49.47,3.24.66,5.24-.22-.07-.33-.42-.49-1.5l.1,1.88c.13.44.22,1.02.3,2.24l-.29-.46c.11,2.5.51,5.03.36,8.25.26.18.67-2.58.9.83-.14.13-.37.26-.44-.63.02.29.13,1.04.08,1.63l-.26-1.36c-.08,1.47.21.76.21,1.94-.2-.02-.13.87-.29.7-.02-.3.06-1.02-.02-1.47,0,1.32-.12,2.92-.27,3.45.11-.12.27,0,.29.97.02,2.51-.24.86-.34,2.32.14.61,0,2.2.29,2.25-.01.73-.15.87-.23,1.15.11,1.3-.04,6.06.3,4.6l.02-.33c0,.06,0,.14.01.21h0s0,0,0,0c.14,2.13.02,4.33-.1,6.53-.11,2.2-.29,4.39-.33,6.5h-.1c0,1.25-.05,2.65-.1,3.96-.07,1.31-.11,2.53-.07,3.43-.05.74-.31,1.74-.4,1.41-.05,1.92.01,2.15-.42,4.89.02-1.94-.22.65.07-1.98-.34,2.48-.53,3.02-.56,5.71-.13-.93-.56,1.82-.63,3.01l.4-1.71c-.13,1.33-.31,2.48-.48,3.65l-.25-.68c-.53,2.5-.79,4.77-.98,6.92-.26,2.13-.57,4.11-1.27,5.94-.05,1.37.71-2.68.73-1.44-.24,1.15-.63,2.29-1,3.22-.35.94-.65,1.68-.74,2.04-.45,1.54-.54,2.28-.63,3.05-.08.77-.17,1.56-.69,3.16.22-.38.68-.67.04,1.76-.78,2.22-1.38,2.59-1,1.15.17-.54.29-.78.32-.75.2-.73.46-1.69.05-.85l.02.32c-.48,1.07-1.47,4.13-1.42,3.35-.45,1.71-.05.78.42-.44-.54,1.4-.96,2.5-1.38,3.6-.43,1.1-.79,2.24-1.46,3.64.25-.43.56-.79.37-.34-1.93,4.11-.58,1.92-1.75,4.77-.92,1.5-.12-.74-1.33,2.11-.93,1.65-.46.22-.22-.49-.98,2.65-2.49,4.62-3.29,6.01l.61-1.35c-.37.81-.71,1.44-1.06,2.09l.61-.63c-.45.75-.79,1.39-.87,1.33-.32.85.69-.4-.03,1.24-.69.94-1.69,3.12-2.16,3.3,1.95-3.09-.48.18,1.05-2.5-.27.53-.64,1.16-1.12,1.89-.1.09,0-.14.11-.35-2.04,2.84-.54,1.55-2.48,4.61.1-.48-.73.52-1.02,1.04.79-1.23.64-.42,0,.77-1.43,1.84-1.35,2.15-2.05,3.15l.84-1.11c-.13.48-.78,1.45-1.69,2.8-.19.04.78-1.26.39-.82-.81,1.64-2.62,3.14-3.98,5.25-.8.85-.33-.11-1.02.65-1.52,2.38-2.06,2.25-3.78,4.64.72-.5.77-.66-.37,1.1l2.95-3.86c-.55.89-1.14,1.75-1.7,2.63.94-1.13,1.86-2.48,2.41-3.16-.75,1.3-.71,1.14-.12.71-1.54,1.34-2.34,3.24-4.05,4.84l-.4-.44c-2.49,2.43-3.88,4.84-7.25,7.86l1.12-.93c-.28.58-1.99,1.96-3,3.03-.03-.24-.77.31-1.32.63.14.05-2.48,2.18-2.58,2.71l-1.75,1.05c-1.45,1.1-2.21,1.82-2.97,2.52-.76.7-1.46,1.46-2.96,2.38.76-.77-.62.03,1.22-1.44-.94.7-1.87,1.19-1.81,1.33-.65.25-2.57,2.02-3.62,2.36-.38.32-.42.58-1.57,1.22-.14.04-.04-.09-.04-.09.04.09-1.73,1.15-.62.76-.85.34-1.86.76-2.91,1.26-1.06.49-2.15,1.11-3.27,1.63-2.24,1.05-4.41,2.1-5.99,2.41-1.18.5-2.46,1.1-3.75,1.59-1.3.49-2.57.96-3.66,1.37.12-.11-.03-.1.4-.23-3.08.9-1.69,1.18-5.23,2.15-1.88.28,1.8-.77.65-.52-.68-.44-4.18,1.44-6.65,1.81l.56-.21c-1.86.34-4.33,1.57-7.31,2.34,0,0,.13-.09,0-.1-.97.43-2.41.95-3.97,1.43-1.56.46-3.24.94-4.67,1.31.84-.44,1.28-.44.67-.56-1.29.33.48.32-2.1.96-.87.05-2.76.34-3.07.11l2.44-.54c-.66-.04-1.45.14-2.23.35-.79.19-1.58.42-2.23.51l.14-.18c-3.74.77-3.74,1.12-7.8,1.72l.44.06c-2.18.67-1.9.02-4.09.6-.24-.1-.48-.21-.72-.32-1.46.25-5.13.9-7.79,1.11.74-.2,1.89-.38,3.08-.56,1.19-.19,2.44-.41,3.38-.58-.73.07-1.97.2-3.12.34-1.15.11-2.22.24-2.59.36.59-.08,1.32-.22,1.91-.2-1.77.43-4.14.77-7.07.84.5-.73-7.64-.03-9.76-.75-5.18.17-10.25-.53-16.26-1.06,2.08.79-1.76-.14-1.45.5-1.41-.08-1.94-.18-2.06-.22l-4.2-.84c-.98-.29,1.34.02,1.23-.13-3.05-.39-1.25-.41-3.24-.83.38.27-1.1.17-2.82-.16l2.4.62c-4.31-.25-3.6-1.01-7.92-1.4l1.38.03c-1.1-.12-3.12-.44-5.13-.81-2.01-.34-4.02-.64-5.13-.67-.37-.16-.83-.44.13-.26-5.17-1.13-11.55-2.46-15.38-4.03h.43c-.94-.3-1.71-.33-2.82-.89.08-.04.42,0,0-.17-.5-.15-2.57-.61-3.73-1.23l1.09.27c-2.33-1.1-4.22-1.71-5.97-2.39-1.73-.71-3.45-1.24-5.37-2.24.11-.19-.71-.81-1.77-1.5-.53-.35-1.12-.72-1.68-1.06-.56-.35-1.07-.73-1.49-1.01l.09-.02c-1.25-.81-2.43-1.52-3.56-2.21-1.09-.74-2.13-1.43-3.17-2.11-.52-.34-1.05-.67-1.56-1.02-.5-.37-1-.74-1.5-1.12-1-.77-2.07-1.53-3.13-2.42-.54-.68-1.33-1.54-2.27-2.49-.47-.48-.98-.98-1.5-1.51-.52-.55-1.06-1.12-1.61-1.7-2.22-2.32-4.61-4.83-6.39-6.98.52.68-.35.13-1.05-.57-.83-1.01-2.64-2.49-2.21-2.6l.3.35c-.36-1-2.22-2.93-3.55-4.55l-.63.08c-1.48-2.34-3.76-5.1-5.77-7.68-2-2.59-3.74-5-4.24-6.45-.41-.52-.84-1.12-1.26-1.72-.41-.61-.8-1.23-1.19-1.76l.28-.08c-.45-.79-.84-1.49-1.2-2.15-.34-.67-.67-1.3-1-1.95-.34-.65-.7-1.33-1.1-2.09-.38-.77-.79-1.63-1.28-2.65l.57.74c-1.08-2.28-2.07-2.58-2.99-4.75l.12-.81c-.43-1.02-.75-2.09-1.11-3.14-.36-1.05-.7-2.11-.99-3.19-.31-1.07-.62-2.13-.97-3.18-.3-1.07-.61-2.12-.98-3.16.08.05.23.15.42.84-.57-1.99-1.55-7.98-1.97-7.1.37-.14-1-4.51-1.63-6.85l.35.31c-.75-1.93-.86-1.97-1.52-4.75-.1-.67.1-.62.21.27-.3-2.24-.61-1.67-.99-4.38l.37.96c-.42-2.28-.45-2.08-.88-3.3-.36-1.42-.69-4.34-.5-4.72-.2-.28-.65-1.5-.77-2.86.07-.2.2.29.26.53-.36-3.86-1.14-5.65-1.25-8.32.08-.07.1-.24.1-.47.43,3.04.77,5.49.71,5.27.25-.04-.05-2.5.58-.6-.47-1.94-1.41-5.25-1.51-7.68.01-.12.02-.24.05-.33l.06.25c-.04-.56-.11-1.05-.21-1.51-.04-.77-.06-1.26-.14-2,.18-.31-.21-2.83-.26-4.07-.27.13-.35-1.49-.47.04,0-.2.05.23.12,1.05.02.18.04.4.07.52,0-.02-.02-.05-.03-.08.09.81.21,1.86.35,3.06-.24-.96-.49-1.96-.46-3.34-.23-.62-.46-1.3-.58-1.69.27-1.73.24-4.99.45-5.46-.24-1.88-.27-4.1-.44-6.14-.13-2.04-.35-3.91-.58-5.1-.06-1.08.16-1.24.24-1.64.05.62.04,1.36.11,1.69-.13-2.15-.02-6.36-.39-6.88.22-2.71.27,1.53.34-2.19l.09.5c.47-3.64.28-6.62.31-9.7.01-1.54.03-3.11.14-4.79.09-1.69.28-3.49.72-5.48-.11.55-.16.83-.23.94.34-2.29.62-4.63.87-6.98.26-2.35.6-4.71.89-7.07.55-4.73,1.39-9.4,2.37-13.87.54-2.54.39-2.86.5-4.45l.4-.5.16-2.73c.23-1.91.71-3.52,1.21-5.25.51-1.73,1.02-3.58,1.28-6.02l-.33.58c.39-1.71.99-5.46,1.16-5.12,0-.18-.09-.61.15-1.25l.17-.02.66-4.26c.82-3.23.5.64,1.57-4.1.33-1.78.65-5.13.4-4.49-.16.71-.49,1.8-.66,1.82l.27-1.63c-.39-.39-.58-1.74-1.77,2.16l-.33,2.83-.42.84.5-2.33c-.5,1.28-.5,2.15-.58,3.12-.17.2-.33.57-.5,1.11l-.16,2.81c-.25.29-.09-1.29-.58.51-.08,1.32.67-1.13.34,1-.49,1.28-.57.86-.72,2.45-.16.19-.17-.15-.09-.78-.14,1.42-.69,3.68-.6,4.45-.54,1.33-.89,4.7-1.3,4.47.01.46-.16,2.51-.37,3.8-.08-2.44-.93,4.78-1.37,4.06.14,1.82-.98,6.29-1.19,9.41,0-.18-.03-.53.04-.8-.33,1.73-.55,2.21-.82,3.3.35.29,0,3,0,4.49-.68,2.07-.26-1.36-.71-.75.3-.06-.22,3.75.14,3.06-.46,1.6-.31,1.39-.75,2.18.45.35-.13,1.53-.02,2.92-.56,2.33-.55.55-.74,3.16-.14.61-.19.33-.21-.1-.02-.43.02-1.01.02-1.01Zm.21,62.19h0c-.06-.53-.12-.99-.16-1.27.03.27.08.63.16,1.27Zm.67,5.19c-.09-.63-.2-1.42-.31-2.25.07-.19.2-.01.27.51-.1-.27.01.95.04,1.74Zm.63-11.17c.13.81.1,1.09.06,1.21-.05-.38-.11-.83-.19-1.43-.01-.02-.03-.07-.04-.09.06.07.12.16.18.31Z"/><path class="cls-4" d="m4.77,139.81c-.01-.12-.03-.18-.04-.34,0,.17-.02.33-.03.5.04.1.08.2.11.28-.01-.15-.03-.3-.04-.44Z"/><path class="cls-4" d="m298.75,129.53v.11c0-.09.02-.17.04-.23-.01.07-.02.07-.04.12Z"/><polygon class="cls-4" points="25.13 221.32 25.19 221.27 24.89 220.92 25.13 221.32"/><path class="cls-4" d="m299.31,100.79c.02-.06.04-.17.05-.38-.02.02-.03.18-.05.38Z"/><path class="cls-4" d="m298.48,88.38l-.07-1.76c.02.76.04,1.32.07,1.76Z"/><path class="cls-4" d="m297.56,78.86c-.06-.11-.1-.14-.14-.17v.02s.14.15.14.15Z"/><path class="cls-4" d="m274.1,225.99c-.07.11-.14.22-.2.31-.45.75-.13.25.2-.31Z"/><path class="cls-4" d="m293.03,184.98c-.08.48-.16.95-.27,1.44.24-.77.42-1.37.27-1.44Z"/><path class="cls-4" d="m238.41,261.78s0,0,0,0c-.09.05-.18.1-.27.16l.27-.15Z"/><path class="cls-4" d="m292.17,188.45c.29-.76.45-1.41.59-2.02-.2.63-.43,1.37-.59,2.02Z"/><path class="cls-4" d="m289.91,38.16l-.09-.45s-.04-.01-.06-.04l.15.49Z"/><path class="cls-4" d="m289.76,37.66l-.15-.49c.05.23.1.43.15.49Z"/><path class="cls-4" d="m289.31,36.14l.31,1.03c-.08-.36-.18-.81-.31-1.03Z"/><path class="cls-4" d="m292.53,50.53l.13.12c-.04-.07-.08-.12-.13-.12Z"/><path class="cls-4" d="m293.35,54.28c-.17-.9-.26-2.3-.59-3.53l-.1-.1c.27.56.35,2.82.69,3.63Z"/><path class="cls-4" d="m295.03,70.27l-.44-3.18c-.01.57-.04,1.32-.31-.11.34,4.05.11-.87.74,3.29Z"/><path class="cls-4" d="m296.31,80.14c-.26-1.7-.15.04-.23-.04.23,1.07.29,1.33.23.04Z"/><path class="cls-4" d="m297.52,151.96l-.24-.19c-.06,1.33.1.02.24.19Z"/><polygon class="cls-4" points="297.3 165.8 297.63 164.53 297.48 163.88 297.3 165.8"/><polygon class="cls-4" points="294.12 173.5 294.2 172.92 293.86 175.11 294.12 173.5"/><path class="cls-4" d="m224.8,266.03l.49.12c.79-.42.81-.82-.49-.12Z"/><path class="cls-4" d="m174.96,280.47c-.58-.08-2.05,0-2.92.27,1.16-.13,2.33-.16,2.92-.27Z"/><polygon class="cls-4" points="35.38 230.99 36.11 231.73 34.82 230.26 35.38 230.99"/></g><path class="cls-5" d="m246.35,186.88c-3.71-12.42-92.18-44.86-90.32-54.26,1.85-9.4,4.68-26.56,4.68-26.56,0,0-3.41,7.9,17.98,13.49,17.11,4.47,50.91,9.9,50.91,9.9,0,0,6.51,18.1,17.06,9.82,16.69-13.09-2.6-24.27-2.6-24.27,0,0-22.62-35.16-28.56-40.87-5.93-5.71-24.5-17.4-28.64-19.09-4.14-1.69-1.48-18.47-1.48-18.47,0,0-6.78,11.37-10.3,10.02s4.94-23.3,4.94-23.3c0,0-9.31,5.36-14.1,12s-5.31,13.65-5.31,13.65c0,0-28.56-8.73-45.24-2.01-16.69,6.72-41.6,23.14-41.6,23.14l24.17-2.66s-21.88,10.35-30.34,19.4c-9.35,10.01-10.46,19.24-10.46,19.24l13.35-5.73s-22.62,27.83-23.73,43.12c0,0-.44,91.48,85.19,101.44,97.87,11.39,114.4-58.01,114.4-58.01Z"/><g><ellipse class="cls-8" cx="101.86" cy="149.09" rx="4.15" ry="15.23" transform="translate(-74.03 189.92) rotate(-68.73)"/><path class="cls-7" d="m85.68,147.24s-10.64,21.45,5.55,27.75,23.88-16.29,23.88-16.29"/><path class="cls-8" d="m85.7,174.84s2.44,2.56.81,6.76l-6.25,16.04c-1.49,3.82-3.16,3.71-3.16,3.71"/><path class="cls-8" d="m95.74,178.75s-3.53.24-5.16,4.43l-6.25,16.04c-1.49,3.82-.18,4.87-.18,4.87"/><path class="cls-8" d="m77.29,198.94s-20.13-.27,2.07,8.37,6.29-5.12,6.29-5.12"/></g><g><ellipse class="cls-8" cx="136.78" cy="151.73" rx="15.23" ry="4.15" transform="translate(-46.58 61.67) rotate(-21.81)"/><path class="cls-7" d="m123.69,161.43s6.88,22.93,23,16.48c16.13-6.45,6.32-28.21,6.32-28.21"/><path class="cls-8" d="m142.56,181.58s3.53.2,5.21,4.39c1.67,4.18,4.87,12.18,6.4,15.99,1.52,3.81.22,4.87.22,4.87"/><path class="cls-8" d="m152.56,177.57s-2.42,2.58-.74,6.77,4.87,12.18,6.4,15.99c1.52,3.81,3.2,3.68,3.2,3.68"/><path class="cls-8" d="m152.88,204.92s-14.89,13.55,7.23,4.7c22.12-8.85,1.1-8.04,1.1-8.04"/></g><line class="cls-7" x1="103.9" y1="129.1" x2="115.11" y2="140.35"/><line class="cls-7" x1="119.04" y1="122.61" x2="121.43" y2="139.34"/><line class="cls-7" x1="136.78" y1="122.61" x2="127.29" y2="139.24"/><path class="cls-3" d="m165.35,57.29c-9.28-.68-18.49-2.12-27.8-2.49-4.87-.19-9.59.28-14.33,1.48-5.79,1.46-11.4,3.36-16.24,6.97-5.29,3.95-9.19,9.38-13.05,14.65-4.47,6.09-8.93,12.18-13.4,18.27-4.43,6.04-8.65,12.23-12.84,18.45-2.73,4.06-5.45,8.13-8.1,12.24-1.74,2.7-3.56,5.39-5.04,8.24.08-.16,1.25-.32,1.45-.37.23-.06,1.33-.18,1.45-.4,1.21-2.34,2.67-4.55,4.09-6.76,2.15-3.36,4.34-6.69,6.56-10,4.06-6.09,8.15-12.17,12.39-18.14,3.37-4.74,6.86-9.39,10.3-14.07,3.94-5.37,7.71-10.93,12.01-16.03s8.96-8.81,14.91-11.23c4.73-1.93,9.85-2.67,14.95-2.59,9.98.16,19.86,1.81,29.8,2.54.95.07,1.96-.84,2.9-.78h0Z"/><path class="cls-3" d="m202.03,75.23c.03,1.46-.08,2.92.05,4.38.11,1.31.4,2.73,1.42,3.65s2.48,1.48,3.82,1.86,2.86.65,4.32.65c.24,0,.48-.19.72-.19-1.46,0-2.92-.25-4.32-.65s-2.77-.92-3.82-1.86-1.31-2.34-1.42-3.65c-.12-1.46-.02-2.92-.05-4.38,0,.05-.73.13-.72.19h0Z"/><path class="cls-3" d="m205.21,73.11c2.1.63,3.81,2.44,5.14,4.1s2.7,3.75,3.17,5.93c0,0,.73-.18.72-.19-.47-2.18-1.8-4.21-3.17-5.93s-3.04-3.47-5.14-4.1c-.21-.06-.52.25-.72.19h0Z"/><circle class="cls-3" cx="208.07" cy="79.88" r="1.66"/><path class="cls-3" d="m240.1,127c-1.54.85-2.39,2.71-2.09,4.43s1.84,3.03,3.56,3.28c.46.07.94.05,1.4-.04,1.1-.22,2.21-.53,3.28-.88.18-.06-.24.05-.15.03-.29.07-.58.15-.87.23-.59.16-1.2.3-1.78.49-1.1.36,3.58-.8,2.16-.6-.13.02-.27.03-.4.04-.23,0-.47,0-.7-.03-.5-.07-.99-.22-1.43-.45-.88-.45-1.61-1.19-1.97-2.12-.73-1.88.14-4.18,1.89-5.16-.09.05-.35.08-.43.1-.34.09-.68.18-1.03.27s-.68.18-1.02.28c-.13.04-.3.06-.42.12h0Z"/></g></g></svg>